<svg width="16" height="16" viewBox="0 0 16 16" fill="none" xmlns="http://www.w3.org/2000/svg">
<g clip-path="url(#clip0_1908_1737)">
<path d="M14.2666 4.08785C13.7958 4.29609 13.2966 4.43286 12.7854 4.49362C13.3242 4.17137 13.7275 3.66421 13.92 3.06665C13.4144 3.36758 12.86 3.57848 12.2822 3.69257C11.894 3.27729 11.3796 3.00188 10.8188 2.90914C10.258 2.81641 9.68226 2.91155 9.18111 3.17978C8.67996 3.448 8.28147 3.87429 8.04759 4.39235C7.8137 4.91042 7.75753 5.49125 7.8878 6.04453C6.86235 5.99314 5.85917 5.72666 4.94339 5.26239C4.02762 4.79813 3.21971 4.14646 2.57213 3.3497C2.34291 3.74341 2.22245 4.19097 2.2231 4.64655C2.2231 5.54072 2.6782 6.33067 3.3701 6.79317C2.96064 6.78028 2.56019 6.6697 2.20213 6.47065V6.50272C2.20226 7.09823 2.40833 7.67538 2.78541 8.1363C3.16248 8.59723 3.68736 8.91356 4.27105 9.03167C3.89094 9.13467 3.49239 9.14985 3.10555 9.07607C3.27012 9.58866 3.59087 10.037 4.0229 10.3582C4.45493 10.6794 4.97659 10.8575 5.51487 10.8675C4.9799 11.2876 4.36736 11.5982 3.71228 11.7815C3.05719 11.9648 2.37241 12.0171 1.69708 11.9355C2.87596 12.6937 4.24829 13.0962 5.64992 13.0949C10.3939 13.0949 12.9882 9.16487 12.9882 5.75655C12.9882 5.64555 12.9852 5.53332 12.9802 5.42355C13.4852 5.05859 13.921 4.60648 14.2672 4.08847L14.2666 4.08785Z" fill="#999999"/>
</g>
<defs>
<clipPath id="clip0_1908_1737">
<rect width="14.8" height="14.8" fill="white" transform="translate(0.599976 0.599976)"/>
</clipPath>
</defs>
</svg>
